<?xml version="1.0" encoding="utf-8"?>
<!-- Generator: Adobe Illustrator 23.0.4, SVG Export Plug-In . SVG Version: 6.00 Build 0)  -->
<svg version="1.1"
	 id="svg3021" xmlns:cc="http://creativecommons.org/ns#" xmlns:dc="http://purl.org/dc/elements/1.1/" xmlns:inkscape="http://www.inkscape.org/namespaces/inkscape" xmlns:rdf="http://www.w3.org/1999/02/22-rdf-syntax-ns#" xmlns:sodipodi="http://sodipodi.sourceforge.net/DTD/sodipodi-0.dtd" xmlns:svg="http://www.w3.org/2000/svg"
	 xmlns="http://www.w3.org/2000/svg" xmlns:xlink="http://www.w3.org/1999/xlink" x="0px" y="0px" viewBox="0 0 595.3 841.9"
	 style="enable-background:new 0 0 595.3 841.9;" xml:space="preserve">
<style type="text/css">
	.st0{fill-rule:evenodd;clip-rule:evenodd;fill:#2C2C2B;}
</style>
<sodipodi:namedview  bordercolor="#666666" borderopacity="1" gridtolerance="10" guidetolerance="10" id="namedview3035" inkscape:current-layer="svg3021" inkscape:cx="372.04749" inkscape:cy="433.62355" inkscape:pageopacity="0" inkscape:pageshadow="2" inkscape:window-height="708" inkscape:window-maximized="1" inkscape:window-width="1024" inkscape:window-x="-4" inkscape:window-y="-4" inkscape:zoom="0.46846973" objecttolerance="10" pagecolor="#ffffff" showgrid="false">
	</sodipodi:namedview>
<g id="g3023" transform="translate(269.81467,-650.62904)">
	<path id="path3025" inkscape:connector-curvature="0" class="st0" d="M-85.2,967.5c-6.2,55-38.9,96.4-73.1,92.5
		c-34.1-3.9-56.7-51.6-50.5-106.5c6.2-55,38.9-96.4,73.1-92.5C-101.6,864.8-79,912.5-85.2,967.5z"/>
	<path id="path3027" inkscape:connector-curvature="0" class="st0" d="M180.7,1125.6c-45.3,31.7-66.1,80.2-46.4,108.4
		c19.7,28.1,72.4,25.2,117.7-6.5c45.3-31.7,66.1-80.2,46.4-108.4C278.7,1091,226,1093.9,180.7,1125.6z"/>
	<path id="path3029" inkscape:connector-curvature="0" class="st0" d="M80.8,948.6c-17.6,52.4-58.3,86.1-90.8,75.1
		c-32.5-10.9-44.6-62.3-27-114.7c17.6-52.4,58.3-86.1,90.8-75.1C86.3,844.8,98.4,896.2,80.8,948.6L80.8,948.6z"/>
	<path id="path3031" inkscape:connector-curvature="0" class="st0" d="M117.3,970.3c-37.6,40.5-47.8,92.3-22.6,115.7
		c25.2,23.4,76.1,9.5,113.7-31c37.7-40.5,47.8-92.3,22.6-115.7C205.8,915.9,154.9,929.8,117.3,970.3L117.3,970.3z"/>
	<path id="path3033" inkscape:connector-curvature="0" class="st0" d="M-47.7,1082.5c-14.3,8-70.8,28.8-101.6,29.1
		c-30.7,0.3-70.7,3.8-93.4,52.8c-22.8,49,12.8,96.9,45.1,113.7c32.2,16.8,94.4,46,133,76.8c38.5,30.8,94.1,57.9,132.8,21
		c38.7-36.8,27.7-81.5,15.6-110.4c-12.2-28.9-19.9-98.2-18-126.7C67.6,1110.3,34.8,1036.4-47.7,1082.5z"/>
</g>
</svg>
