<?xml version="1.0" encoding="utf-8"?>
<!-- Generator: Adobe Illustrator 23.0.4, SVG Export Plug-In . SVG Version: 6.00 Build 0)  -->
<svg version="1.1"
	 id="svg3021" xmlns:cc="http://creativecommons.org/ns#" xmlns:dc="http://purl.org/dc/elements/1.1/" xmlns:inkscape="http://www.inkscape.org/namespaces/inkscape" xmlns:rdf="http://www.w3.org/1999/02/22-rdf-syntax-ns#" xmlns:sodipodi="http://sodipodi.sourceforge.net/DTD/sodipodi-0.dtd" xmlns:svg="http://www.w3.org/2000/svg"
	 xmlns="http://www.w3.org/2000/svg" xmlns:xlink="http://www.w3.org/1999/xlink" x="0px" y="0px" viewBox="0 0 600 800"
	 style="enable-background:new 0 0 600 800;" xml:space="preserve">
<style type="text/css">
	.st0{opacity:0.1;}
	.st1{fill-rule:evenodd;clip-rule:evenodd;fill:#2C2C2B;}
</style>
<sodipodi:namedview  bordercolor="#666666" borderopacity="1" gridtolerance="10" guidetolerance="10" id="namedview3035" inkscape:current-layer="svg3021" inkscape:cx="372.04749" inkscape:cy="433.62355" inkscape:pageopacity="0" inkscape:pageshadow="2" inkscape:window-height="708" inkscape:window-maximized="1" inkscape:window-width="1024" inkscape:window-x="-4" inkscape:window-y="-4" inkscape:zoom="0.46846973" objecttolerance="10" pagecolor="#ffffff" showgrid="false">
	</sodipodi:namedview>
<g class="st0">
	<path id="path3025_14_" inkscape:connector-curvature="0" class="st1" d="M330.5,570.8c-5.7,15.1-17.9,24.5-27.3,20.9
		c-9.4-3.5-12.3-18.7-6.6-33.8c5.7-15.1,17.9-24.5,27.3-20.9S336.2,555.7,330.5,570.8z"/>
	<path id="path3027_14_" inkscape:connector-curvature="0" class="st1" d="M394.4,634.7c-15.1,5.7-24.5,17.9-20.9,27.3
		c3.5,9.4,18.7,12.3,33.8,6.6c15.1-5.7,24.5-17.9,20.9-27.3C424.6,631.9,409.5,629,394.4,634.7z"/>
	<path id="path3029_14_" inkscape:connector-curvature="0" class="st1" d="M378.8,577.4c-8.8,13.6-22.7,20.2-31.1,14.7
		c-8.4-5.4-8.1-20.8,0.6-34.4c8.8-13.6,22.7-20.2,31.1-14.7C387.9,548.4,387.6,563.8,378.8,577.4L378.8,577.4z"/>
	<path id="path3031_14_" inkscape:connector-curvature="0" class="st1" d="M387.6,586.2c-13.6,8.8-20.2,22.7-14.7,31.1
		c5.4,8.4,20.8,8.2,34.4-0.6s20.2-22.7,14.7-31.1C416.6,577.2,401.2,577.4,387.6,586.2L387.6,586.2z"/>
	<path id="path3033_14_" inkscape:connector-curvature="0" class="st1" d="M332.9,606c-4.6,1.2-22.1,3.1-30.8,0.9
		c-8.7-2.1-20.3-4-30.2,8.2c-10,12.2-3.3,28.3,4.6,35.4c7.9,7.1,23.4,19.8,32.1,31.3s22.5,23.1,36.1,15.5s13.7-21.1,12.3-30.1
		c-1.4-9,1.4-29.2,4-37.1C363.5,622.2,359.5,598.9,332.9,606z"/>
	<path id="path3025_13_" inkscape:connector-curvature="0" class="st1" d="M470.5,392.8c-5.7,15.1-17.9,24.5-27.3,20.9
		c-9.4-3.5-12.3-18.7-6.6-33.8c5.7-15.1,17.9-24.5,27.3-20.9S476.2,377.7,470.5,392.8z"/>
	<path id="path3027_13_" inkscape:connector-curvature="0" class="st1" d="M534.4,456.7c-15.1,5.7-24.5,17.9-20.9,27.3
		c3.5,9.4,18.7,12.3,33.8,6.6c15.1-5.7,24.5-17.9,20.9-27.3C564.6,453.9,549.5,451,534.4,456.7z"/>
	<path id="path3029_13_" inkscape:connector-curvature="0" class="st1" d="M518.8,399.4c-8.8,13.6-22.7,20.2-31.1,14.7
		c-8.4-5.4-8.1-20.8,0.6-34.4c8.8-13.6,22.7-20.2,31.1-14.7C527.9,370.4,527.6,385.8,518.8,399.4L518.8,399.4z"/>
	<path id="path3031_13_" inkscape:connector-curvature="0" class="st1" d="M527.6,408.2c-13.6,8.8-20.2,22.7-14.7,31.1
		c5.4,8.4,20.8,8.2,34.4-0.6c13.6-8.8,20.2-22.7,14.7-31.1C556.6,399.2,541.2,399.4,527.6,408.2L527.6,408.2z"/>
	<path id="path3033_13_" inkscape:connector-curvature="0" class="st1" d="M472.9,428c-4.6,1.2-22.1,3.1-30.8,0.9
		c-8.7-2.1-20.3-4-30.2,8.2c-10,12.2-3.3,28.3,4.6,35.4s23.4,19.8,32.1,31.3s22.5,23.1,36.1,15.5s13.7-21.1,12.3-30.1
		c-1.4-9,1.4-29.2,4-37.1C503.5,444.2,499.5,420.9,472.9,428z"/>
	<path id="path3025_9_" inkscape:connector-curvature="0" class="st1" d="M50.5,570.8c-5.7,15.1-17.9,24.5-27.3,20.9
		c-9.4-3.5-12.3-18.7-6.6-33.8s17.9-24.5,27.3-20.9S56.2,555.7,50.5,570.8z"/>
	<path id="path3027_9_" inkscape:connector-curvature="0" class="st1" d="M114.4,634.7c-15.1,5.7-24.5,17.9-20.9,27.3
		c3.5,9.4,18.7,12.3,33.8,6.6s24.5-17.9,20.9-27.3C144.6,631.9,129.5,629,114.4,634.7z"/>
	<path id="path3029_9_" inkscape:connector-curvature="0" class="st1" d="M98.8,577.4C90,591,76.1,597.6,67.7,592.1
		c-8.4-5.4-8.1-20.8,0.6-34.4c8.8-13.6,22.7-20.2,31.1-14.7C107.9,548.4,107.6,563.8,98.8,577.4L98.8,577.4z"/>
	<path id="path3031_9_" inkscape:connector-curvature="0" class="st1" d="M107.6,586.2C94,595,87.4,608.9,92.9,617.3
		c5.4,8.4,20.8,8.2,34.4-0.6s20.2-22.7,14.7-31.1C136.6,577.2,121.2,577.4,107.6,586.2L107.6,586.2z"/>
	<path id="path3033_9_" inkscape:connector-curvature="0" class="st1" d="M52.9,606c-4.6,1.2-22.1,3.1-30.8,0.9
		c-8.7-2.1-20.3-4-30.2,8.2c-10,12.2-3.3,28.3,4.6,35.4c7.9,7.1,23.4,19.8,32.1,31.3s22.5,23.1,36.1,15.5s13.7-21.1,12.3-30.1
		c-1.4-9,1.4-29.2,4-37.1C83.5,622.2,79.5,598.9,52.9,606z"/>
	<path id="path3025_10_" inkscape:connector-curvature="0" class="st1" d="M650.5,570.8c-5.7,15.1-17.9,24.5-27.3,20.9
		c-9.4-3.5-12.3-18.7-6.6-33.8s17.9-24.5,27.3-20.9S656.2,555.7,650.5,570.8z"/>
	<path id="path3027_10_" inkscape:connector-curvature="0" class="st1" d="M714.4,634.7c-15.1,5.7-24.5,17.9-20.9,27.3
		c3.5,9.4,18.7,12.3,33.8,6.6s24.5-17.9,20.9-27.3C744.6,631.9,729.5,629,714.4,634.7z"/>
	<path id="path3029_10_" inkscape:connector-curvature="0" class="st1" d="M698.8,577.4c-8.8,13.6-22.7,20.2-31.1,14.7
		c-8.4-5.4-8.1-20.8,0.6-34.4c8.8-13.6,22.7-20.2,31.1-14.7C707.9,548.4,707.6,563.8,698.8,577.4L698.8,577.4z"/>
	<path id="path3031_10_" inkscape:connector-curvature="0" class="st1" d="M707.6,586.2c-13.6,8.8-20.2,22.7-14.7,31.1
		c5.4,8.4,20.8,8.2,34.4-0.6c13.6-8.8,20.2-22.7,14.7-31.1C736.6,577.2,721.2,577.4,707.6,586.2L707.6,586.2z"/>
	<path id="path3033_10_" inkscape:connector-curvature="0" class="st1" d="M652.9,606c-4.6,1.2-22.1,3.1-30.8,0.9
		c-8.7-2.1-20.3-4-30.2,8.2c-10,12.2-3.3,28.3,4.6,35.4c7.9,7.1,23.4,19.8,32.1,31.3c8.7,11.5,22.5,23.1,36.1,15.5
		s13.7-21.1,12.3-30.1s1.4-29.2,4-37.1C683.5,622.2,679.5,598.9,652.9,606z"/>
	<path id="path3025_8_" inkscape:connector-curvature="0" class="st1" d="M150.5,352.8c-5.7,15.1-17.9,24.5-27.3,20.9
		c-9.4-3.5-12.3-18.7-6.6-33.8c5.7-15.1,17.9-24.5,27.3-20.9C153.3,322.6,156.2,337.7,150.5,352.8z"/>
	<path id="path3027_8_" inkscape:connector-curvature="0" class="st1" d="M214.4,416.7c-15.1,5.7-24.5,17.9-20.9,27.3
		c3.5,9.4,18.7,12.3,33.8,6.6c15.1-5.7,24.5-17.9,20.9-27.3C244.6,413.9,229.5,411,214.4,416.7z"/>
	<path id="path3029_8_" inkscape:connector-curvature="0" class="st1" d="M198.8,359.4c-8.8,13.6-22.7,20.2-31.1,14.7
		c-8.4-5.4-8.1-20.8,0.6-34.4c8.8-13.6,22.7-20.2,31.1-14.7C207.9,330.4,207.6,345.8,198.8,359.4L198.8,359.4z"/>
	<path id="path3031_8_" inkscape:connector-curvature="0" class="st1" d="M207.6,368.2c-13.6,8.8-20.2,22.7-14.7,31.1
		c5.4,8.4,20.8,8.2,34.4-0.6c13.6-8.8,20.2-22.7,14.7-31.1C236.6,359.2,221.2,359.4,207.6,368.2L207.6,368.2z"/>
	<path id="path3033_8_" inkscape:connector-curvature="0" class="st1" d="M152.9,388c-4.6,1.2-22.1,3.1-30.8,0.9
		c-8.7-2.1-20.3-4-30.2,8.2c-10,12.2-3.3,28.3,4.6,35.4s23.4,19.8,32.1,31.3s22.5,23.1,36.1,15.5c13.6-7.6,13.7-21.1,12.3-30.1
		s1.4-29.2,4-37.1C183.5,404.2,179.5,380.9,152.9,388z"/>
	<path id="path3025_7_" inkscape:connector-curvature="0" class="st1" d="M320.5,194.8c-5.7,15.1-17.9,24.5-27.3,20.9
		c-9.4-3.5-12.3-18.7-6.6-33.8c5.7-15.1,17.9-24.5,27.3-20.9S326.2,179.7,320.5,194.8z"/>
	<path id="path3027_7_" inkscape:connector-curvature="0" class="st1" d="M384.4,258.7c-15.1,5.7-24.5,17.9-20.9,27.3
		c3.5,9.4,18.7,12.3,33.8,6.6c15.1-5.7,24.5-17.9,20.9-27.3C414.6,255.9,399.5,253,384.4,258.7z"/>
	<path id="path3029_7_" inkscape:connector-curvature="0" class="st1" d="M368.8,201.4c-8.8,13.6-22.7,20.2-31.1,14.7
		c-8.4-5.4-8.1-20.8,0.6-34.4c8.8-13.6,22.7-20.2,31.1-14.7C377.9,172.4,377.6,187.8,368.8,201.4L368.8,201.4z"/>
	<path id="path3031_7_" inkscape:connector-curvature="0" class="st1" d="M377.6,210.2c-13.6,8.8-20.2,22.7-14.7,31.1
		c5.4,8.4,20.8,8.2,34.4-0.6s20.2-22.7,14.7-31.1C406.6,201.2,391.2,201.4,377.6,210.2L377.6,210.2z"/>
	<path id="path3033_7_" inkscape:connector-curvature="0" class="st1" d="M322.9,230c-4.6,1.2-22.1,3.1-30.8,0.9
		c-8.7-2.1-20.3-4-30.2,8.2c-10,12.2-3.3,28.3,4.6,35.4s23.4,19.8,32.1,31.3s22.5,23.1,36.1,15.5s13.7-21.1,12.3-30.1
		c-1.4-9,1.4-29.2,4-37.1C353.5,246.2,349.5,222.9,322.9,230z"/>
	<g>
		<path id="path3025_6_" inkscape:connector-curvature="0" class="st1" d="M420.5-13.2c-5.7,15.1-17.9,24.5-27.3,20.9
			c-9.4-3.5-12.3-18.7-6.6-33.8c5.7-15.1,17.9-24.5,27.3-20.9S426.2-28.3,420.5-13.2z"/>
		<path id="path3027_6_" inkscape:connector-curvature="0" class="st1" d="M484.4,50.7c-15.1,5.7-24.5,17.9-20.9,27.3
			c3.5,9.4,18.7,12.3,33.8,6.6c15.1-5.7,24.5-17.9,20.9-27.3C514.6,47.9,499.5,45,484.4,50.7z"/>
		<path id="path3029_6_" inkscape:connector-curvature="0" class="st1" d="M468.8-6.6C460.1,7,446.2,13.6,437.7,8.1
			c-8.4-5.4-8.1-20.8,0.6-34.4c8.8-13.6,22.7-20.2,31.1-14.7C477.9-35.6,477.6-20.2,468.8-6.6L468.8-6.6z"/>
		<path id="path3031_6_" inkscape:connector-curvature="0" class="st1" d="M477.6,2.2C464,11,457.4,24.9,462.9,33.3
			c5.4,8.4,20.8,8.2,34.4-0.6C510.8,23.9,517.4,10,512,1.6C506.6-6.8,491.2-6.6,477.6,2.2L477.6,2.2z"/>
		<path id="path3033_6_" inkscape:connector-curvature="0" class="st1" d="M422.9,22c-4.6,1.2-22.1,3.1-30.8,0.9
			c-8.7-2.1-20.3-4-30.2,8.2c-10,12.2-3.3,28.3,4.6,35.4s23.4,19.8,32.1,31.3s22.5,23.1,36.1,15.5s13.7-21.1,12.3-30.1
			c-1.4-9,1.4-29.2,4-37.1C453.5,38.2,449.5,14.9,422.9,22z"/>
	</g>
	<g>
		<path id="path3025_5_" inkscape:connector-curvature="0" class="st1" d="M420.5,786.8c-5.7,15.1-17.9,24.5-27.3,20.9
			c-9.4-3.5-12.3-18.7-6.6-33.8c5.7-15.1,17.9-24.5,27.3-20.9S426.2,771.7,420.5,786.8z"/>
		<path id="path3027_5_" inkscape:connector-curvature="0" class="st1" d="M484.4,850.7c-15.1,5.7-24.5,17.9-20.9,27.3
			c3.5,9.4,18.7,12.3,33.8,6.6s24.5-17.9,20.9-27.3C514.6,847.9,499.5,845,484.4,850.7z"/>
		<path id="path3029_5_" inkscape:connector-curvature="0" class="st1" d="M468.8,793.4c-8.8,13.6-22.7,20.2-31.1,14.7
			c-8.4-5.4-8.1-20.8,0.6-34.4c8.8-13.6,22.7-20.2,31.1-14.7C477.9,764.4,477.6,779.8,468.8,793.4L468.8,793.4z"/>
		<path id="path3031_5_" inkscape:connector-curvature="0" class="st1" d="M477.6,802.2c-13.6,8.8-20.2,22.7-14.7,31.1
			c5.4,8.4,20.8,8.2,34.4-0.6s20.2-22.7,14.7-31.1C506.6,793.2,491.2,793.4,477.6,802.2L477.6,802.2z"/>
		<path id="path3033_5_" inkscape:connector-curvature="0" class="st1" d="M422.9,822c-4.6,1.2-22.1,3.1-30.8,0.9
			c-8.7-2.1-20.3-4-30.2,8.2c-10,12.2-3.3,28.3,4.6,35.4c7.9,7.1,23.4,19.8,32.1,31.3s22.5,23.1,36.1,15.5s13.7-21.1,12.3-30.1
			c-1.4-9,1.4-29.2,4-37.1C453.5,838.2,449.5,814.9,422.9,822z"/>
	</g>
	<g>
		<path id="path3025_1_" inkscape:connector-curvature="0" class="st1" d="M170.5-13.2c-5.7,15.1-17.9,24.5-27.3,20.9
			c-9.4-3.5-12.3-18.7-6.6-33.8s17.9-24.5,27.3-20.9S176.2-28.3,170.5-13.2z"/>
		<path id="path3027_1_" inkscape:connector-curvature="0" class="st1" d="M234.4,50.7c-15.1,5.7-24.5,17.9-20.9,27.3
			c3.5,9.4,18.7,12.3,33.8,6.6c15.1-5.7,24.5-17.9,20.9-27.3C264.6,47.9,249.5,45,234.4,50.7z"/>
		<path id="path3029_1_" inkscape:connector-curvature="0" class="st1" d="M218.8-6.6C210.1,7,196.2,13.6,187.7,8.1
			c-8.4-5.4-8.1-20.8,0.6-34.4c8.8-13.6,22.7-20.2,31.1-14.7C227.9-35.6,227.6-20.2,218.8-6.6L218.8-6.6z"/>
		<path id="path3031_1_" inkscape:connector-curvature="0" class="st1" d="M227.6,2.2C214,11,207.4,24.9,212.9,33.3
			c5.4,8.4,20.8,8.2,34.4-0.6C260.8,23.9,267.4,10,262,1.6S241.2-6.6,227.6,2.2L227.6,2.2z"/>
		<path id="path3033_1_" inkscape:connector-curvature="0" class="st1" d="M172.9,22c-4.6,1.2-22.1,3.1-30.8,0.9
			c-8.7-2.1-20.3-4-30.2,8.2c-10,12.2-3.3,28.3,4.6,35.4s23.4,19.8,32.1,31.3s22.5,23.1,36.1,15.5c13.6-7.6,13.7-21.1,12.3-30.1
			s1.4-29.2,4-37.1C203.5,38.2,199.5,14.9,172.9,22z"/>
	</g>
	<g>
		<path id="path3025_4_" inkscape:connector-curvature="0" class="st1" d="M170.5,786.8c-5.7,15.1-17.9,24.5-27.3,20.9
			c-9.4-3.5-12.3-18.7-6.6-33.8s17.9-24.5,27.3-20.9S176.2,771.7,170.5,786.8z"/>
		<path id="path3027_4_" inkscape:connector-curvature="0" class="st1" d="M234.4,850.7c-15.1,5.7-24.5,17.9-20.9,27.3
			c3.5,9.4,18.7,12.3,33.8,6.6c15.1-5.7,24.5-17.9,20.9-27.3C264.6,847.9,249.5,845,234.4,850.7z"/>
		<path id="path3029_4_" inkscape:connector-curvature="0" class="st1" d="M218.8,793.4c-8.8,13.6-22.7,20.2-31.1,14.7
			c-8.4-5.4-8.1-20.8,0.6-34.4c8.8-13.6,22.7-20.2,31.1-14.7C227.9,764.4,227.6,779.8,218.8,793.4L218.8,793.4z"/>
		<path id="path3031_4_" inkscape:connector-curvature="0" class="st1" d="M227.6,802.2c-13.6,8.8-20.2,22.7-14.7,31.1
			c5.4,8.4,20.8,8.2,34.4-0.6s20.2-22.7,14.7-31.1C256.6,793.2,241.2,793.4,227.6,802.2L227.6,802.2z"/>
		<path id="path3033_4_" inkscape:connector-curvature="0" class="st1" d="M172.9,822c-4.6,1.2-22.1,3.1-30.8,0.9
			c-8.7-2.1-20.3-4-30.2,8.2c-10,12.2-3.3,28.3,4.6,35.4c7.9,7.1,23.4,19.8,32.1,31.3s22.5,23.1,36.1,15.5
			c13.6-7.6,13.7-21.1,12.3-30.1s1.4-29.2,4-37.1C203.5,838.2,199.5,814.9,172.9,822z"/>
	</g>
	<path id="path3025_2_" inkscape:connector-curvature="0" class="st1" d="M10.5,194.8c-5.7,15.1-17.9,24.5-27.3,20.9
		c-9.4-3.5-12.3-18.7-6.6-33.8S-5.5,157.4,3.9,161S16.2,179.7,10.5,194.8z"/>
	<path id="path3027_2_" inkscape:connector-curvature="0" class="st1" d="M74.4,258.7c-15.1,5.7-24.5,17.9-20.9,27.3
		c3.5,9.4,18.7,12.3,33.8,6.6c15.1-5.7,24.5-17.9,20.9-27.3C104.6,255.9,89.5,253,74.4,258.7z"/>
	<path id="path3029_2_" inkscape:connector-curvature="0" class="st1" d="M58.8,201.4C50,215,36.1,221.6,27.7,216.1
		c-8.4-5.4-8.1-20.8,0.6-34.4c8.8-13.6,22.7-20.2,31.1-14.7C67.9,172.4,67.6,187.8,58.8,201.4L58.8,201.4z"/>
	<path id="path3031_2_" inkscape:connector-curvature="0" class="st1" d="M67.6,210.2C54,219,47.4,232.9,52.9,241.3
		c5.4,8.4,20.8,8.2,34.4-0.6s20.2-22.7,14.7-31.1C96.6,201.2,81.2,201.4,67.6,210.2L67.6,210.2z"/>
	<path id="path3033_2_" inkscape:connector-curvature="0" class="st1" d="M12.9,230c-4.6,1.2-22.1,3.1-30.8,0.9
		c-8.7-2.1-20.3-4-30.2,8.2c-10,12.2-3.3,28.3,4.6,35.4s23.4,19.8,32.1,31.3s22.5,23.1,36.1,15.5s13.7-21.1,12.3-30.1
		s1.4-29.2,4-37.1C43.5,246.2,39.5,222.9,12.9,230z"/>
	<path id="path3025_3_" inkscape:connector-curvature="0" class="st1" d="M610.5,194.8c-5.7,15.1-17.9,24.5-27.3,20.9
		c-9.4-3.5-12.3-18.7-6.6-33.8s17.9-24.5,27.3-20.9S616.2,179.7,610.5,194.8z"/>
	<path id="path3027_3_" inkscape:connector-curvature="0" class="st1" d="M674.4,258.7c-15.1,5.7-24.5,17.9-20.9,27.3
		c3.5,9.4,18.7,12.3,33.8,6.6c15.1-5.7,24.5-17.9,20.9-27.3C704.6,255.9,689.5,253,674.4,258.7z"/>
	<path id="path3029_3_" inkscape:connector-curvature="0" class="st1" d="M658.8,201.4c-8.8,13.6-22.7,20.2-31.1,14.7
		c-8.4-5.4-8.1-20.8,0.6-34.4c8.8-13.6,22.7-20.2,31.1-14.7C667.9,172.4,667.6,187.8,658.8,201.4L658.8,201.4z"/>
	<path id="path3031_3_" inkscape:connector-curvature="0" class="st1" d="M667.6,210.2c-13.6,8.8-20.2,22.7-14.7,31.1
		c5.4,8.4,20.8,8.2,34.4-0.6c13.6-8.8,20.2-22.7,14.7-31.1C696.6,201.2,681.2,201.4,667.6,210.2L667.6,210.2z"/>
	<path id="path3033_3_" inkscape:connector-curvature="0" class="st1" d="M612.9,230c-4.6,1.2-22.1,3.1-30.8,0.9
		c-8.7-2.1-20.3-4-30.2,8.2c-10,12.2-3.3,28.3,4.6,35.4c7.9,7.1,23.4,19.8,32.1,31.3c8.7,11.5,22.5,23.1,36.1,15.5
		s13.7-21.1,12.3-30.1s1.4-29.2,4-37.1C643.5,246.2,639.5,222.9,612.9,230z"/>
</g>
</svg>
